<mxfile host="65bd71144e">
    <diagram id="Qz_5oJFVS0WdAD9Li9E0" name="初步類別圖">
        <mxGraphModel dx="544" dy="635" grid="1" gridSize="10" guides="1" tooltips="1" connect="1" arrows="1" fold="1" page="1" pageScale="1" pageWidth="1654" pageHeight="2336" math="0" shadow="0">
            <root>
                <mxCell id="0"/>
                <mxCell id="1" parent="0"/>
                <mxCell id="2" value="住戶" style="swimlane;fontStyle=0;childLayout=stackLayout;horizontal=1;startSize=30;horizontalStack=0;resizeParent=1;resizeParentMax=0;resizeLast=0;collapsible=1;marginBottom=0;whiteSpace=wrap;html=1;" vertex="1" parent="1">
                    <mxGeometry x="400" y="400" width="120" height="180" as="geometry">
                        <mxRectangle x="400" y="400" width="60" height="30" as="alternateBounds"/>
                    </mxGeometry>
                </mxCell>
                <mxCell id="3" value="-姓名" style="text;strokeColor=none;fillColor=none;align=left;verticalAlign=middle;spacingLeft=4;spacingRight=4;overflow=hidden;points=[[0,0.5],[1,0.5]];portConstraint=eastwest;rotatable=0;whiteSpace=wrap;html=1;" vertex="1" parent="2">
                    <mxGeometry y="30" width="120" height="30" as="geometry"/>
                </mxCell>
                <mxCell id="4" value="-戶號" style="text;strokeColor=none;fillColor=none;align=left;verticalAlign=middle;spacingLeft=4;spacingRight=4;overflow=hidden;points=[[0,0.5],[1,0.5]];portConstraint=eastwest;rotatable=0;whiteSpace=wrap;html=1;" vertex="1" parent="2">
                    <mxGeometry y="60" width="120" height="30" as="geometry"/>
                </mxCell>
                <mxCell id="5" value="-綁定手機" style="text;strokeColor=none;fillColor=none;align=left;verticalAlign=middle;spacingLeft=4;spacingRight=4;overflow=hidden;points=[[0,0.5],[1,0.5]];portConstraint=eastwest;rotatable=0;whiteSpace=wrap;html=1;" vertex="1" parent="2">
                    <mxGeometry y="90" width="120" height="30" as="geometry"/>
                </mxCell>
                <mxCell id="9" value="＋綁定手機" style="text;strokeColor=none;fillColor=none;align=left;verticalAlign=middle;spacingLeft=4;spacingRight=4;overflow=hidden;points=[[0,0.5],[1,0.5]];portConstraint=eastwest;rotatable=0;whiteSpace=wrap;html=1;" vertex="1" parent="2">
                    <mxGeometry y="120" width="120" height="30" as="geometry"/>
                </mxCell>
                <mxCell id="10" value="＋獲取綁定手機" style="text;strokeColor=none;fillColor=none;align=left;verticalAlign=middle;spacingLeft=4;spacingRight=4;overflow=hidden;points=[[0,0.5],[1,0.5]];portConstraint=eastwest;rotatable=0;whiteSpace=wrap;html=1;" vertex="1" parent="2">
                    <mxGeometry y="150" width="120" height="30" as="geometry"/>
                </mxCell>
                <mxCell id="12" value="" style="endArrow=none;html=1;exitX=0.018;exitY=-0.111;exitDx=0;exitDy=0;exitPerimeter=0;entryX=1.006;entryY=0.936;entryDx=0;entryDy=0;entryPerimeter=0;" edge="1" parent="2">
                    <mxGeometry width="50" height="50" relative="1" as="geometry">
                        <mxPoint x="0.15999999999996817" y="116.66999999999996" as="sourcePoint"/>
                        <mxPoint x="118.71999999999991" y="118.07999999999993" as="targetPoint"/>
                    </mxGeometry>
                </mxCell>
                <mxCell id="13" value="手機" style="swimlane;fontStyle=0;childLayout=stackLayout;horizontal=1;startSize=30;horizontalStack=0;resizeParent=1;resizeParentMax=0;resizeLast=0;collapsible=1;marginBottom=0;whiteSpace=wrap;html=1;" vertex="1" parent="1">
                    <mxGeometry x="640" y="400" width="120" height="150" as="geometry">
                        <mxRectangle x="400" y="400" width="60" height="30" as="alternateBounds"/>
                    </mxGeometry>
                </mxCell>
                <mxCell id="14" value="-手機號碼" style="text;strokeColor=none;fillColor=none;align=left;verticalAlign=middle;spacingLeft=4;spacingRight=4;overflow=hidden;points=[[0,0.5],[1,0.5]];portConstraint=eastwest;rotatable=0;whiteSpace=wrap;html=1;" vertex="1" parent="13">
                    <mxGeometry y="30" width="120" height="30" as="geometry"/>
                </mxCell>
                <mxCell id="17" value="-綁定戶" style="text;strokeColor=none;fillColor=none;align=left;verticalAlign=middle;spacingLeft=4;spacingRight=4;overflow=hidden;points=[[0,0.5],[1,0.5]];portConstraint=eastwest;rotatable=0;whiteSpace=wrap;html=1;" vertex="1" parent="13">
                    <mxGeometry y="60" width="120" height="30" as="geometry"/>
                </mxCell>
                <mxCell id="16" value="＋綁定戶" style="text;strokeColor=none;fillColor=none;align=left;verticalAlign=middle;spacingLeft=4;spacingRight=4;overflow=hidden;points=[[0,0.5],[1,0.5]];portConstraint=eastwest;rotatable=0;whiteSpace=wrap;html=1;" vertex="1" parent="13">
                    <mxGeometry y="90" width="120" height="30" as="geometry"/>
                </mxCell>
                <mxCell id="18" value="＋解除綁定" style="text;strokeColor=none;fillColor=none;align=left;verticalAlign=middle;spacingLeft=4;spacingRight=4;overflow=hidden;points=[[0,0.5],[1,0.5]];portConstraint=eastwest;rotatable=0;whiteSpace=wrap;html=1;" vertex="1" parent="13">
                    <mxGeometry y="120" width="120" height="30" as="geometry"/>
                </mxCell>
                <mxCell id="20" value="" style="endArrow=none;html=1;exitX=0.019;exitY=0.008;exitDx=0;exitDy=0;exitPerimeter=0;" edge="1" parent="13" source="16">
                    <mxGeometry width="50" height="50" relative="1" as="geometry">
                        <mxPoint x="-10" y="140" as="sourcePoint"/>
                        <mxPoint x="120" y="90" as="targetPoint"/>
                    </mxGeometry>
                </mxCell>
                <mxCell id="23" value="" style="endArrow=none;html=1;exitX=1;exitY=0.5;exitDx=0;exitDy=0;entryX=0;entryY=0.5;entryDx=0;entryDy=0;" edge="1" parent="1" source="4" target="17">
                    <mxGeometry width="50" height="50" relative="1" as="geometry">
                        <mxPoint x="580" y="490" as="sourcePoint"/>
                        <mxPoint x="630" y="440" as="targetPoint"/>
                    </mxGeometry>
                </mxCell>
                <mxCell id="24" value="輸入" style="text;html=1;strokeColor=none;fillColor=none;align=center;verticalAlign=middle;whiteSpace=wrap;rounded=0;" vertex="1" parent="1">
                    <mxGeometry x="540" y="430" width="60" height="30" as="geometry"/>
                </mxCell>
                <mxCell id="25" value="" style="triangle;whiteSpace=wrap;html=1;" vertex="1" parent="1">
                    <mxGeometry x="530" y="435" width="20" height="20" as="geometry"/>
                </mxCell>
                <mxCell id="26" value="1" style="text;html=1;strokeColor=none;fillColor=none;align=center;verticalAlign=middle;whiteSpace=wrap;rounded=0;" vertex="1" parent="1">
                    <mxGeometry x="500" y="450" width="60" height="30" as="geometry"/>
                </mxCell>
                <mxCell id="27" value="1..*" style="text;html=1;strokeColor=none;fillColor=none;align=center;verticalAlign=middle;whiteSpace=wrap;rounded=0;" vertex="1" parent="1">
                    <mxGeometry x="590" y="450" width="60" height="30" as="geometry"/>
                </mxCell>
                <mxCell id="29" value="公告" style="swimlane;fontStyle=0;childLayout=stackLayout;horizontal=1;startSize=30;horizontalStack=0;resizeParent=1;resizeParentMax=0;resizeLast=0;collapsible=1;marginBottom=0;whiteSpace=wrap;html=1;" vertex="1" parent="1">
                    <mxGeometry x="880" y="400" width="120" height="210" as="geometry">
                        <mxRectangle x="400" y="400" width="60" height="30" as="alternateBounds"/>
                    </mxGeometry>
                </mxCell>
                <mxCell id="30" value="-發布者" style="text;strokeColor=none;fillColor=none;align=left;verticalAlign=middle;spacingLeft=4;spacingRight=4;overflow=hidden;points=[[0,0.5],[1,0.5]];portConstraint=eastwest;rotatable=0;whiteSpace=wrap;html=1;" vertex="1" parent="29">
                    <mxGeometry y="30" width="120" height="30" as="geometry"/>
                </mxCell>
                <mxCell id="31" value="-內容" style="text;strokeColor=none;fillColor=none;align=left;verticalAlign=middle;spacingLeft=4;spacingRight=4;overflow=hidden;points=[[0,0.5],[1,0.5]];portConstraint=eastwest;rotatable=0;whiteSpace=wrap;html=1;" vertex="1" parent="29">
                    <mxGeometry y="60" width="120" height="30" as="geometry"/>
                </mxCell>
                <mxCell id="32" value="-發佈時間" style="text;strokeColor=none;fillColor=none;align=left;verticalAlign=middle;spacingLeft=4;spacingRight=4;overflow=hidden;points=[[0,0.5],[1,0.5]];portConstraint=eastwest;rotatable=0;whiteSpace=wrap;html=1;" vertex="1" parent="29">
                    <mxGeometry y="90" width="120" height="30" as="geometry"/>
                </mxCell>
                <mxCell id="67" value="" style="endArrow=none;html=1;exitX=0.019;exitY=0.008;exitDx=0;exitDy=0;exitPerimeter=0;" edge="1" parent="29">
                    <mxGeometry width="50" height="50" relative="1" as="geometry">
                        <mxPoint x="2.2799999999999727" y="120.24000000000001" as="sourcePoint"/>
                        <mxPoint x="120.00000000000023" y="120" as="targetPoint"/>
                    </mxGeometry>
                </mxCell>
                <mxCell id="33" value="+新增公告" style="text;strokeColor=none;fillColor=none;align=left;verticalAlign=middle;spacingLeft=4;spacingRight=4;overflow=hidden;points=[[0,0.5],[1,0.5]];portConstraint=eastwest;rotatable=0;whiteSpace=wrap;html=1;" vertex="1" parent="29">
                    <mxGeometry y="120" width="120" height="30" as="geometry"/>
                </mxCell>
                <mxCell id="39" value="＋修改公告" style="text;strokeColor=none;fillColor=none;align=left;verticalAlign=middle;spacingLeft=4;spacingRight=4;overflow=hidden;points=[[0,0.5],[1,0.5]];portConstraint=eastwest;rotatable=0;whiteSpace=wrap;html=1;" vertex="1" parent="29">
                    <mxGeometry y="150" width="120" height="30" as="geometry"/>
                </mxCell>
                <mxCell id="40" value="+刪除公告" style="text;strokeColor=none;fillColor=none;align=left;verticalAlign=middle;spacingLeft=4;spacingRight=4;overflow=hidden;points=[[0,0.5],[1,0.5]];portConstraint=eastwest;rotatable=0;whiteSpace=wrap;html=1;" vertex="1" parent="29">
                    <mxGeometry y="180" width="120" height="30" as="geometry"/>
                </mxCell>
                <mxCell id="42" value="" style="endArrow=none;html=1;exitX=1;exitY=0.5;exitDx=0;exitDy=0;entryX=0;entryY=0.5;entryDx=0;entryDy=0;" edge="1" parent="1">
                    <mxGeometry width="50" height="50" relative="1" as="geometry">
                        <mxPoint x="760" y="480" as="sourcePoint"/>
                        <mxPoint x="880" y="480" as="targetPoint"/>
                    </mxGeometry>
                </mxCell>
                <mxCell id="43" value="發布" style="text;html=1;strokeColor=none;fillColor=none;align=center;verticalAlign=middle;whiteSpace=wrap;rounded=0;" vertex="1" parent="1">
                    <mxGeometry x="780" y="435" width="60" height="30" as="geometry"/>
                </mxCell>
                <mxCell id="44" value="" style="triangle;whiteSpace=wrap;html=1;" vertex="1" parent="1">
                    <mxGeometry x="770" y="440" width="20" height="20" as="geometry"/>
                </mxCell>
                <mxCell id="45" value="0.." style="text;html=1;strokeColor=none;fillColor=none;align=center;verticalAlign=middle;whiteSpace=wrap;rounded=0;" vertex="1" parent="1">
                    <mxGeometry x="740" y="455" width="60" height="30" as="geometry"/>
                </mxCell>
                <mxCell id="46" value="0.." style="text;html=1;strokeColor=none;fillColor=none;align=center;verticalAlign=middle;whiteSpace=wrap;rounded=0;" vertex="1" parent="1">
                    <mxGeometry x="830" y="455" width="60" height="30" as="geometry"/>
                </mxCell>
                <mxCell id="47" value="信件/包裹" style="swimlane;fontStyle=0;childLayout=stackLayout;horizontal=1;startSize=30;horizontalStack=0;resizeParent=1;resizeParentMax=0;resizeLast=0;collapsible=1;marginBottom=0;whiteSpace=wrap;html=1;" vertex="1" parent="1">
                    <mxGeometry x="400" y="700" width="120" height="150" as="geometry">
                        <mxRectangle x="400" y="400" width="60" height="30" as="alternateBounds"/>
                    </mxGeometry>
                </mxCell>
                <mxCell id="48" value="-收件人" style="text;strokeColor=none;fillColor=none;align=left;verticalAlign=middle;spacingLeft=4;spacingRight=4;overflow=hidden;points=[[0,0.5],[1,0.5]];portConstraint=eastwest;rotatable=0;whiteSpace=wrap;html=1;" vertex="1" parent="47">
                    <mxGeometry y="30" width="120" height="30" as="geometry"/>
                </mxCell>
                <mxCell id="49" value="-收件時間" style="text;strokeColor=none;fillColor=none;align=left;verticalAlign=middle;spacingLeft=4;spacingRight=4;overflow=hidden;points=[[0,0.5],[1,0.5]];portConstraint=eastwest;rotatable=0;whiteSpace=wrap;html=1;" vertex="1" parent="47">
                    <mxGeometry y="60" width="120" height="30" as="geometry"/>
                </mxCell>
                <mxCell id="50" value="＋設定收件人" style="text;strokeColor=none;fillColor=none;align=left;verticalAlign=middle;spacingLeft=4;spacingRight=4;overflow=hidden;points=[[0,0.5],[1,0.5]];portConstraint=eastwest;rotatable=0;whiteSpace=wrap;html=1;" vertex="1" parent="47">
                    <mxGeometry y="90" width="120" height="30" as="geometry"/>
                </mxCell>
                <mxCell id="51" value="＋獲取收件時間" style="text;strokeColor=none;fillColor=none;align=left;verticalAlign=middle;spacingLeft=4;spacingRight=4;overflow=hidden;points=[[0,0.5],[1,0.5]];portConstraint=eastwest;rotatable=0;whiteSpace=wrap;html=1;" vertex="1" parent="47">
                    <mxGeometry y="120" width="120" height="30" as="geometry"/>
                </mxCell>
                <mxCell id="52" value="" style="endArrow=none;html=1;exitX=0.019;exitY=0.008;exitDx=0;exitDy=0;exitPerimeter=0;" edge="1" parent="47" source="50">
                    <mxGeometry width="50" height="50" relative="1" as="geometry">
                        <mxPoint x="-10" y="140" as="sourcePoint"/>
                        <mxPoint x="120" y="90" as="targetPoint"/>
                    </mxGeometry>
                </mxCell>
                <mxCell id="53" value="" style="endArrow=none;html=1;exitX=0.5;exitY=0;exitDx=0;exitDy=0;" edge="1" parent="1" source="47">
                    <mxGeometry width="50" height="50" relative="1" as="geometry">
                        <mxPoint x="540" y="690" as="sourcePoint"/>
                        <mxPoint x="460" y="580" as="targetPoint"/>
                    </mxGeometry>
                </mxCell>
                <mxCell id="54" value="" style="triangle;whiteSpace=wrap;html=1;" vertex="1" parent="1">
                    <mxGeometry x="380" y="620" width="20" height="30" as="geometry"/>
                </mxCell>
                <mxCell id="55" value="簽收" style="text;html=1;strokeColor=none;fillColor=none;align=center;verticalAlign=middle;whiteSpace=wrap;rounded=0;" vertex="1" parent="1">
                    <mxGeometry x="400" y="620" width="60" height="30" as="geometry"/>
                </mxCell>
                <mxCell id="56" value="1" style="text;html=1;strokeColor=none;fillColor=none;align=center;verticalAlign=middle;whiteSpace=wrap;rounded=0;" vertex="1" parent="1">
                    <mxGeometry x="440" y="580" width="60" height="30" as="geometry"/>
                </mxCell>
                <mxCell id="57" value="*" style="text;html=1;strokeColor=none;fillColor=none;align=center;verticalAlign=middle;whiteSpace=wrap;rounded=0;" vertex="1" parent="1">
                    <mxGeometry x="440" y="670" width="60" height="30" as="geometry"/>
                </mxCell>
                <mxCell id="58" value="警衛" style="swimlane;fontStyle=0;childLayout=stackLayout;horizontal=1;startSize=30;horizontalStack=0;resizeParent=1;resizeParentMax=0;resizeLast=0;collapsible=1;marginBottom=0;whiteSpace=wrap;html=1;" vertex="1" parent="1">
                    <mxGeometry x="640" y="700" width="120" height="90" as="geometry">
                        <mxRectangle x="400" y="400" width="60" height="30" as="alternateBounds"/>
                    </mxGeometry>
                </mxCell>
                <mxCell id="60" value="-姓名" style="text;strokeColor=none;fillColor=none;align=left;verticalAlign=middle;spacingLeft=4;spacingRight=4;overflow=hidden;points=[[0,0.5],[1,0.5]];portConstraint=eastwest;rotatable=0;whiteSpace=wrap;html=1;" vertex="1" parent="58">
                    <mxGeometry y="30" width="120" height="30" as="geometry"/>
                </mxCell>
                <mxCell id="62" value="＋簽收郵件/包裹" style="text;strokeColor=none;fillColor=none;align=left;verticalAlign=middle;spacingLeft=4;spacingRight=4;overflow=hidden;points=[[0,0.5],[1,0.5]];portConstraint=eastwest;rotatable=0;whiteSpace=wrap;html=1;" vertex="1" parent="58">
                    <mxGeometry y="60" width="120" height="30" as="geometry"/>
                </mxCell>
                <mxCell id="65" value="" style="endArrow=none;html=1;exitX=0.009;exitY=0.005;exitDx=0;exitDy=0;exitPerimeter=0;entryX=1;entryY=0.005;entryDx=0;entryDy=0;entryPerimeter=0;" edge="1" parent="58" source="62" target="62">
                    <mxGeometry width="50" height="50" relative="1" as="geometry">
                        <mxPoint x="-40" y="-10" as="sourcePoint"/>
                        <mxPoint x="10" y="-60" as="targetPoint"/>
                    </mxGeometry>
                </mxCell>
                <mxCell id="66" value="" style="endArrow=none;html=1;exitX=1;exitY=0.5;exitDx=0;exitDy=0;entryX=0;entryY=0.5;entryDx=0;entryDy=0;dashed=1;" edge="1" parent="1">
                    <mxGeometry width="50" height="50" relative="1" as="geometry">
                        <mxPoint x="520" y="760" as="sourcePoint"/>
                        <mxPoint x="640" y="760" as="targetPoint"/>
                    </mxGeometry>
                </mxCell>
                <mxCell id="68" value="主任委員" style="swimlane;fontStyle=0;childLayout=stackLayout;horizontal=1;startSize=30;horizontalStack=0;resizeParent=1;resizeParentMax=0;resizeLast=0;collapsible=1;marginBottom=0;whiteSpace=wrap;html=1;" vertex="1" parent="1">
                    <mxGeometry x="880" y="700" width="120" height="180" as="geometry">
                        <mxRectangle x="400" y="400" width="60" height="30" as="alternateBounds"/>
                    </mxGeometry>
                </mxCell>
                <mxCell id="78" value="-姓名" style="text;strokeColor=none;fillColor=none;align=left;verticalAlign=middle;spacingLeft=4;spacingRight=4;overflow=hidden;points=[[0,0.5],[1,0.5]];portConstraint=eastwest;rotatable=0;whiteSpace=wrap;html=1;" vertex="1" parent="68">
                    <mxGeometry y="30" width="120" height="30" as="geometry"/>
                </mxCell>
                <mxCell id="77" value="-職位" style="text;strokeColor=none;fillColor=none;align=left;verticalAlign=middle;spacingLeft=4;spacingRight=4;overflow=hidden;points=[[0,0.5],[1,0.5]];portConstraint=eastwest;rotatable=0;whiteSpace=wrap;html=1;" vertex="1" parent="68">
                    <mxGeometry y="60" width="120" height="30" as="geometry"/>
                </mxCell>
                <mxCell id="72" value="" style="endArrow=none;html=1;exitX=0.019;exitY=0.008;exitDx=0;exitDy=0;exitPerimeter=0;" edge="1" parent="68">
                    <mxGeometry width="50" height="50" relative="1" as="geometry">
                        <mxPoint x="2.2799999999999727" y="89.13" as="sourcePoint"/>
                        <mxPoint x="120.00000000000023" y="88.88999999999999" as="targetPoint"/>
                    </mxGeometry>
                </mxCell>
                <mxCell id="76" value="＋發布公告" style="text;strokeColor=none;fillColor=none;align=left;verticalAlign=middle;spacingLeft=4;spacingRight=4;overflow=hidden;points=[[0,0.5],[1,0.5]];portConstraint=eastwest;rotatable=0;whiteSpace=wrap;html=1;" vertex="1" parent="68">
                    <mxGeometry y="90" width="120" height="30" as="geometry"/>
                </mxCell>
                <mxCell id="70" value="＋修改公告" style="text;strokeColor=none;fillColor=none;align=left;verticalAlign=middle;spacingLeft=4;spacingRight=4;overflow=hidden;points=[[0,0.5],[1,0.5]];portConstraint=eastwest;rotatable=0;whiteSpace=wrap;html=1;" vertex="1" parent="68">
                    <mxGeometry y="120" width="120" height="30" as="geometry"/>
                </mxCell>
                <mxCell id="71" value="＋刪除公告" style="text;strokeColor=none;fillColor=none;align=left;verticalAlign=middle;spacingLeft=4;spacingRight=4;overflow=hidden;points=[[0,0.5],[1,0.5]];portConstraint=eastwest;rotatable=0;whiteSpace=wrap;html=1;" vertex="1" parent="68">
                    <mxGeometry y="150" width="120" height="30" as="geometry"/>
                </mxCell>
                <mxCell id="74" value="&lt;br&gt;" style="text;strokeColor=none;fillColor=none;align=left;verticalAlign=middle;spacingLeft=4;spacingRight=4;overflow=hidden;points=[[0,0.5],[1,0.5]];portConstraint=eastwest;rotatable=0;whiteSpace=wrap;html=1;" vertex="1" parent="1">
                    <mxGeometry x="870" y="630" width="120" height="30" as="geometry"/>
                </mxCell>
                <mxCell id="79" value="" style="endArrow=none;html=1;exitX=0.5;exitY=0;exitDx=0;exitDy=0;" edge="1" parent="1" source="68">
                    <mxGeometry width="50" height="50" relative="1" as="geometry">
                        <mxPoint x="680" y="670" as="sourcePoint"/>
                        <mxPoint x="940" y="610" as="targetPoint"/>
                    </mxGeometry>
                </mxCell>
                <mxCell id="80" value="*" style="text;html=1;strokeColor=none;fillColor=none;align=center;verticalAlign=middle;whiteSpace=wrap;rounded=0;" vertex="1" parent="1">
                    <mxGeometry x="920" y="610" width="60" height="30" as="geometry"/>
                </mxCell>
                <mxCell id="81" value="1" style="text;html=1;strokeColor=none;fillColor=none;align=center;verticalAlign=middle;whiteSpace=wrap;rounded=0;" vertex="1" parent="1">
                    <mxGeometry x="920" y="670" width="60" height="30" as="geometry"/>
                </mxCell>
            </root>
        </mxGraphModel>
    </diagram>
    <diagram id="8FB5E6BQfM_fbbKBwTg2" name="循序圖1">
        <mxGraphModel dx="460" dy="537" grid="1" gridSize="10" guides="1" tooltips="1" connect="1" arrows="1" fold="1" page="1" pageScale="1" pageWidth="1654" pageHeight="2336" math="0" shadow="0">
            <root>
                <mxCell id="0"/>
                <mxCell id="1" parent="0"/>
                <mxCell id="q6ocJ7i_6CzLC3TiOSsY-1" value="Resident" style="shape=umlActor;verticalLabelPosition=bottom;verticalAlign=top;html=1;outlineConnect=0;" vertex="1" parent="1">
                    <mxGeometry x="210" y="120" width="30" height="60" as="geometry"/>
                </mxCell>
                <mxCell id="q6ocJ7i_6CzLC3TiOSsY-9" style="edgeStyle=none;html=1;exitX=0;exitY=0.75;exitDx=0;exitDy=0;dashed=1;dashPattern=8 8;" edge="1" parent="1" source="q6ocJ7i_6CzLC3TiOSsY-6">
                    <mxGeometry relative="1" as="geometry">
                        <mxPoint x="220" y="320" as="targetPoint"/>
                    </mxGeometry>
                </mxCell>
                <mxCell id="q6ocJ7i_6CzLC3TiOSsY-2" value="APP" style="rounded=0;whiteSpace=wrap;html=1;fillColor=#1ba1e2;fontColor=#ffffff;strokeColor=#006EAF;" vertex="1" parent="1">
                    <mxGeometry x="380" y="170" width="70" height="30" as="geometry"/>
                </mxCell>
                <mxCell id="q6ocJ7i_6CzLC3TiOSsY-3" value="" style="endArrow=none;dashed=1;html=1;" edge="1" parent="1">
                    <mxGeometry width="50" height="50" relative="1" as="geometry">
                        <mxPoint x="220" y="410" as="sourcePoint"/>
                        <mxPoint x="220" y="200" as="targetPoint"/>
                    </mxGeometry>
                </mxCell>
                <mxCell id="q6ocJ7i_6CzLC3TiOSsY-4" value="" style="endArrow=none;dashed=1;html=1;startArrow=none;" edge="1" parent="1" source="q6ocJ7i_6CzLC3TiOSsY-6">
                    <mxGeometry width="50" height="50" relative="1" as="geometry">
                        <mxPoint x="420" y="410.0000000000001" as="sourcePoint"/>
                        <mxPoint x="420" y="200" as="targetPoint"/>
                    </mxGeometry>
                </mxCell>
                <mxCell id="q6ocJ7i_6CzLC3TiOSsY-5" value="" style="endArrow=classic;html=1;" edge="1" parent="1">
                    <mxGeometry width="50" height="50" relative="1" as="geometry">
                        <mxPoint x="220" y="280" as="sourcePoint"/>
                        <mxPoint x="400" y="280" as="targetPoint"/>
                    </mxGeometry>
                </mxCell>
                <mxCell id="q6ocJ7i_6CzLC3TiOSsY-7" value="" style="endArrow=none;dashed=1;html=1;" edge="1" parent="1" target="q6ocJ7i_6CzLC3TiOSsY-6">
                    <mxGeometry width="50" height="50" relative="1" as="geometry">
                        <mxPoint x="420" y="410.0000000000001" as="sourcePoint"/>
                        <mxPoint x="420" y="200" as="targetPoint"/>
                    </mxGeometry>
                </mxCell>
                <mxCell id="q6ocJ7i_6CzLC3TiOSsY-6" value="" style="rounded=0;whiteSpace=wrap;html=1;fillColor=#1ba1e2;fontColor=#ffffff;strokeColor=#006EAF;" vertex="1" parent="1">
                    <mxGeometry x="400" y="260" width="40" height="80" as="geometry"/>
                </mxCell>
                <mxCell id="q6ocJ7i_6CzLC3TiOSsY-10" value="getMailPackgeInfo()" style="text;html=1;strokeColor=none;fillColor=none;align=center;verticalAlign=middle;whiteSpace=wrap;rounded=0;" vertex="1" parent="1">
                    <mxGeometry x="290" y="250" width="60" height="30" as="geometry"/>
                </mxCell>
                <mxCell id="q6ocJ7i_6CzLC3TiOSsY-11" value="View information" style="text;html=1;strokeColor=none;fillColor=none;align=center;verticalAlign=middle;whiteSpace=wrap;rounded=0;" vertex="1" parent="1">
                    <mxGeometry x="235" y="290" width="170" height="30" as="geometry"/>
                </mxCell>
            </root>
        </mxGraphModel>
    </diagram>
    <diagram id="PTsLcOHP2jt0m2Q2iaWP" name="循序圖2">
        <mxGraphModel dx="332" dy="388" grid="1" gridSize="10" guides="1" tooltips="1" connect="1" arrows="1" fold="1" page="1" pageScale="1" pageWidth="1654" pageHeight="2336" math="0" shadow="0">
            <root>
                <mxCell id="0"/>
                <mxCell id="1" parent="0"/>
                <mxCell id="6A_HtTyfYsHpV4q5h0QC-1" value="Resident" style="shape=umlActor;verticalLabelPosition=bottom;verticalAlign=top;html=1;outlineConnect=0;" vertex="1" parent="1">
                    <mxGeometry x="210" y="120" width="30" height="60" as="geometry"/>
                </mxCell>
                <mxCell id="6A_HtTyfYsHpV4q5h0QC-2" style="edgeStyle=none;html=1;exitX=0;exitY=0.75;exitDx=0;exitDy=0;dashed=1;dashPattern=8 8;" edge="1" parent="1" source="6A_HtTyfYsHpV4q5h0QC-8">
                    <mxGeometry relative="1" as="geometry">
                        <mxPoint x="220" y="320.0000000000001" as="targetPoint"/>
                    </mxGeometry>
                </mxCell>
                <mxCell id="6A_HtTyfYsHpV4q5h0QC-3" value="APP" style="rounded=0;whiteSpace=wrap;html=1;fillColor=#1ba1e2;fontColor=#ffffff;strokeColor=#006EAF;" vertex="1" parent="1">
                    <mxGeometry x="380" y="170" width="70" height="30" as="geometry"/>
                </mxCell>
                <mxCell id="6A_HtTyfYsHpV4q5h0QC-4" value="" style="endArrow=none;dashed=1;html=1;" edge="1" parent="1">
                    <mxGeometry width="50" height="50" relative="1" as="geometry">
                        <mxPoint x="220" y="410.0000000000001" as="sourcePoint"/>
                        <mxPoint x="220" y="200" as="targetPoint"/>
                    </mxGeometry>
                </mxCell>
                <mxCell id="6A_HtTyfYsHpV4q5h0QC-5" value="" style="endArrow=none;dashed=1;html=1;startArrow=none;" edge="1" parent="1" source="6A_HtTyfYsHpV4q5h0QC-8">
                    <mxGeometry width="50" height="50" relative="1" as="geometry">
                        <mxPoint x="420" y="410.0000000000001" as="sourcePoint"/>
                        <mxPoint x="420" y="200" as="targetPoint"/>
                    </mxGeometry>
                </mxCell>
                <mxCell id="6A_HtTyfYsHpV4q5h0QC-6" value="" style="endArrow=classic;html=1;" edge="1" parent="1">
                    <mxGeometry width="50" height="50" relative="1" as="geometry">
                        <mxPoint x="220" y="280.0000000000001" as="sourcePoint"/>
                        <mxPoint x="400" y="280.0000000000001" as="targetPoint"/>
                    </mxGeometry>
                </mxCell>
                <mxCell id="6A_HtTyfYsHpV4q5h0QC-7" value="" style="endArrow=none;dashed=1;html=1;" edge="1" parent="1" target="6A_HtTyfYsHpV4q5h0QC-8">
                    <mxGeometry width="50" height="50" relative="1" as="geometry">
                        <mxPoint x="420" y="410.0000000000001" as="sourcePoint"/>
                        <mxPoint x="420" y="200" as="targetPoint"/>
                    </mxGeometry>
                </mxCell>
                <mxCell id="6A_HtTyfYsHpV4q5h0QC-8" value="" style="rounded=0;whiteSpace=wrap;html=1;fillColor=#1ba1e2;fontColor=#ffffff;strokeColor=#006EAF;" vertex="1" parent="1">
                    <mxGeometry x="400" y="260" width="40" height="80" as="geometry"/>
                </mxCell>
                <mxCell id="6A_HtTyfYsHpV4q5h0QC-9" value="updateUserProfile()" style="text;html=1;strokeColor=none;fillColor=none;align=center;verticalAlign=middle;whiteSpace=wrap;rounded=0;" vertex="1" parent="1">
                    <mxGeometry x="290" y="250" width="60" height="30" as="geometry"/>
                </mxCell>
                <mxCell id="6A_HtTyfYsHpV4q5h0QC-10" value="Confirm information" style="text;html=1;strokeColor=none;fillColor=none;align=center;verticalAlign=middle;whiteSpace=wrap;rounded=0;" vertex="1" parent="1">
                    <mxGeometry x="235" y="290" width="170" height="30" as="geometry"/>
                </mxCell>
            </root>
        </mxGraphModel>
    </diagram>
    <diagram id="yCNbFSz0MkMspnTVhDgp" name="循序圖3">
        <mxGraphModel dx="299" dy="349" grid="1" gridSize="10" guides="1" tooltips="1" connect="1" arrows="1" fold="1" page="1" pageScale="1" pageWidth="1654" pageHeight="2336" math="0" shadow="0">
            <root>
                <mxCell id="0"/>
                <mxCell id="1" parent="0"/>
                <mxCell id="gd2VrQ4xrNvQp4eNReec-1" value="Resident" style="shape=umlActor;verticalLabelPosition=bottom;verticalAlign=top;html=1;outlineConnect=0;" vertex="1" parent="1">
                    <mxGeometry x="210" y="120" width="30" height="60" as="geometry"/>
                </mxCell>
                <mxCell id="gd2VrQ4xrNvQp4eNReec-2" style="edgeStyle=none;html=1;exitX=0;exitY=0.75;exitDx=0;exitDy=0;dashed=1;dashPattern=8 8;" edge="1" parent="1" source="gd2VrQ4xrNvQp4eNReec-8">
                    <mxGeometry relative="1" as="geometry">
                        <mxPoint x="220" y="320.0000000000001" as="targetPoint"/>
                    </mxGeometry>
                </mxCell>
                <mxCell id="gd2VrQ4xrNvQp4eNReec-3" value="APP" style="rounded=0;whiteSpace=wrap;html=1;fillColor=#1ba1e2;fontColor=#ffffff;strokeColor=#006EAF;" vertex="1" parent="1">
                    <mxGeometry x="380" y="170" width="70" height="30" as="geometry"/>
                </mxCell>
                <mxCell id="gd2VrQ4xrNvQp4eNReec-4" value="" style="endArrow=none;dashed=1;html=1;" edge="1" parent="1">
                    <mxGeometry width="50" height="50" relative="1" as="geometry">
                        <mxPoint x="220" y="410.0000000000001" as="sourcePoint"/>
                        <mxPoint x="220" y="200" as="targetPoint"/>
                    </mxGeometry>
                </mxCell>
                <mxCell id="gd2VrQ4xrNvQp4eNReec-5" value="" style="endArrow=none;dashed=1;html=1;startArrow=none;" edge="1" parent="1" source="gd2VrQ4xrNvQp4eNReec-8">
                    <mxGeometry width="50" height="50" relative="1" as="geometry">
                        <mxPoint x="420" y="410.0000000000001" as="sourcePoint"/>
                        <mxPoint x="420" y="200" as="targetPoint"/>
                    </mxGeometry>
                </mxCell>
                <mxCell id="gd2VrQ4xrNvQp4eNReec-6" value="" style="endArrow=classic;html=1;" edge="1" parent="1">
                    <mxGeometry width="50" height="50" relative="1" as="geometry">
                        <mxPoint x="220" y="280.0000000000001" as="sourcePoint"/>
                        <mxPoint x="400" y="280.0000000000001" as="targetPoint"/>
                    </mxGeometry>
                </mxCell>
                <mxCell id="gd2VrQ4xrNvQp4eNReec-7" value="" style="endArrow=none;dashed=1;html=1;" edge="1" parent="1" target="gd2VrQ4xrNvQp4eNReec-8">
                    <mxGeometry width="50" height="50" relative="1" as="geometry">
                        <mxPoint x="420" y="410.0000000000001" as="sourcePoint"/>
                        <mxPoint x="420" y="200" as="targetPoint"/>
                    </mxGeometry>
                </mxCell>
                <mxCell id="gd2VrQ4xrNvQp4eNReec-8" value="" style="rounded=0;whiteSpace=wrap;html=1;fillColor=#1ba1e2;fontColor=#ffffff;strokeColor=#006EAF;" vertex="1" parent="1">
                    <mxGeometry x="400" y="260" width="40" height="80" as="geometry"/>
                </mxCell>
                <mxCell id="gd2VrQ4xrNvQp4eNReec-9" value="publishAnnouncement()" style="text;html=1;strokeColor=none;fillColor=none;align=center;verticalAlign=middle;whiteSpace=wrap;rounded=0;" vertex="1" parent="1">
                    <mxGeometry x="290" y="250" width="60" height="30" as="geometry"/>
                </mxCell>
                <mxCell id="gd2VrQ4xrNvQp4eNReec-10" value="Posted successfully" style="text;html=1;strokeColor=none;fillColor=none;align=center;verticalAlign=middle;whiteSpace=wrap;rounded=0;" vertex="1" parent="1">
                    <mxGeometry x="235" y="290" width="170" height="30" as="geometry"/>
                </mxCell>
            </root>
        </mxGraphModel>
    </diagram>
    <diagram id="NJPraBG9b1wtgeGzPkcn" name="循序圖4">
        <mxGraphModel dx="299" dy="349" grid="1" gridSize="10" guides="1" tooltips="1" connect="1" arrows="1" fold="1" page="1" pageScale="1" pageWidth="1654" pageHeight="2336" math="0" shadow="0">
            <root>
                <mxCell id="0"/>
                <mxCell id="1" parent="0"/>
                <mxCell id="B0nceQW7lnSjkPPZn-uq-1" value="Resident" style="shape=umlActor;verticalLabelPosition=bottom;verticalAlign=top;html=1;outlineConnect=0;" vertex="1" parent="1">
                    <mxGeometry x="210" y="120" width="30" height="60" as="geometry"/>
                </mxCell>
                <mxCell id="B0nceQW7lnSjkPPZn-uq-2" style="edgeStyle=none;html=1;exitX=0;exitY=0.75;exitDx=0;exitDy=0;dashed=1;dashPattern=8 8;" edge="1" parent="1" source="B0nceQW7lnSjkPPZn-uq-8">
                    <mxGeometry relative="1" as="geometry">
                        <mxPoint x="220" y="320.0000000000001" as="targetPoint"/>
                    </mxGeometry>
                </mxCell>
                <mxCell id="B0nceQW7lnSjkPPZn-uq-3" value="APP" style="rounded=0;whiteSpace=wrap;html=1;fillColor=#1ba1e2;fontColor=#ffffff;strokeColor=#006EAF;" vertex="1" parent="1">
                    <mxGeometry x="380" y="170" width="70" height="30" as="geometry"/>
                </mxCell>
                <mxCell id="B0nceQW7lnSjkPPZn-uq-4" value="" style="endArrow=none;dashed=1;html=1;" edge="1" parent="1">
                    <mxGeometry width="50" height="50" relative="1" as="geometry">
                        <mxPoint x="220" y="410.0000000000001" as="sourcePoint"/>
                        <mxPoint x="220" y="200" as="targetPoint"/>
                    </mxGeometry>
                </mxCell>
                <mxCell id="B0nceQW7lnSjkPPZn-uq-5" value="" style="endArrow=none;dashed=1;html=1;startArrow=none;" edge="1" parent="1" source="B0nceQW7lnSjkPPZn-uq-8">
                    <mxGeometry width="50" height="50" relative="1" as="geometry">
                        <mxPoint x="420" y="410.0000000000001" as="sourcePoint"/>
                        <mxPoint x="420" y="200" as="targetPoint"/>
                    </mxGeometry>
                </mxCell>
                <mxCell id="B0nceQW7lnSjkPPZn-uq-6" value="" style="endArrow=classic;html=1;" edge="1" parent="1">
                    <mxGeometry width="50" height="50" relative="1" as="geometry">
                        <mxPoint x="220" y="280.0000000000001" as="sourcePoint"/>
                        <mxPoint x="400" y="280.0000000000001" as="targetPoint"/>
                    </mxGeometry>
                </mxCell>
                <mxCell id="B0nceQW7lnSjkPPZn-uq-7" value="" style="endArrow=none;dashed=1;html=1;" edge="1" parent="1" target="B0nceQW7lnSjkPPZn-uq-8">
                    <mxGeometry width="50" height="50" relative="1" as="geometry">
                        <mxPoint x="420" y="410.0000000000001" as="sourcePoint"/>
                        <mxPoint x="420" y="200" as="targetPoint"/>
                    </mxGeometry>
                </mxCell>
                <mxCell id="B0nceQW7lnSjkPPZn-uq-8" value="" style="rounded=0;whiteSpace=wrap;html=1;fillColor=#1ba1e2;fontColor=#ffffff;strokeColor=#006EAF;" vertex="1" parent="1">
                    <mxGeometry x="400" y="260" width="40" height="80" as="geometry"/>
                </mxCell>
                <mxCell id="B0nceQW7lnSjkPPZn-uq-9" value="replyToAnnouncement()" style="text;html=1;strokeColor=none;fillColor=none;align=center;verticalAlign=middle;whiteSpace=wrap;rounded=0;" vertex="1" parent="1">
                    <mxGeometry x="290" y="250" width="60" height="30" as="geometry"/>
                </mxCell>
                <mxCell id="B0nceQW7lnSjkPPZn-uq-10" value="Posted successfully" style="text;html=1;strokeColor=none;fillColor=none;align=center;verticalAlign=middle;whiteSpace=wrap;rounded=0;" vertex="1" parent="1">
                    <mxGeometry x="235" y="290" width="170" height="30" as="geometry"/>
                </mxCell>
            </root>
        </mxGraphModel>
    </diagram>
    <diagram id="QsMXk7YhoOj66u3XHwKY" name="循序圖5">
        <mxGraphModel dx="299" dy="349" grid="1" gridSize="10" guides="1" tooltips="1" connect="1" arrows="1" fold="1" page="1" pageScale="1" pageWidth="1654" pageHeight="2336" math="0" shadow="0">
            <root>
                <mxCell id="0"/>
                <mxCell id="1" parent="0"/>
                <mxCell id="6HE_HoCdKG0zjBrQhqTW-1" value="Resident" style="shape=umlActor;verticalLabelPosition=bottom;verticalAlign=top;html=1;outlineConnect=0;" vertex="1" parent="1">
                    <mxGeometry x="210" y="120" width="30" height="60" as="geometry"/>
                </mxCell>
                <mxCell id="6HE_HoCdKG0zjBrQhqTW-2" style="edgeStyle=none;html=1;exitX=0;exitY=0.75;exitDx=0;exitDy=0;dashed=1;dashPattern=8 8;" edge="1" parent="1" source="6HE_HoCdKG0zjBrQhqTW-8">
                    <mxGeometry relative="1" as="geometry">
                        <mxPoint x="220" y="320.0000000000001" as="targetPoint"/>
                    </mxGeometry>
                </mxCell>
                <mxCell id="6HE_HoCdKG0zjBrQhqTW-3" value="APP" style="rounded=0;whiteSpace=wrap;html=1;fillColor=#1ba1e2;fontColor=#ffffff;strokeColor=#006EAF;" vertex="1" parent="1">
                    <mxGeometry x="380" y="170" width="70" height="30" as="geometry"/>
                </mxCell>
                <mxCell id="6HE_HoCdKG0zjBrQhqTW-4" value="" style="endArrow=none;dashed=1;html=1;" edge="1" parent="1">
                    <mxGeometry width="50" height="50" relative="1" as="geometry">
                        <mxPoint x="220" y="410.0000000000001" as="sourcePoint"/>
                        <mxPoint x="220" y="200" as="targetPoint"/>
                    </mxGeometry>
                </mxCell>
                <mxCell id="6HE_HoCdKG0zjBrQhqTW-5" value="" style="endArrow=none;dashed=1;html=1;startArrow=none;" edge="1" parent="1" source="6HE_HoCdKG0zjBrQhqTW-8">
                    <mxGeometry width="50" height="50" relative="1" as="geometry">
                        <mxPoint x="420" y="410.0000000000001" as="sourcePoint"/>
                        <mxPoint x="420" y="200" as="targetPoint"/>
                    </mxGeometry>
                </mxCell>
                <mxCell id="6HE_HoCdKG0zjBrQhqTW-6" value="" style="endArrow=classic;html=1;" edge="1" parent="1">
                    <mxGeometry width="50" height="50" relative="1" as="geometry">
                        <mxPoint x="220" y="280.0000000000001" as="sourcePoint"/>
                        <mxPoint x="400" y="280.0000000000001" as="targetPoint"/>
                    </mxGeometry>
                </mxCell>
                <mxCell id="6HE_HoCdKG0zjBrQhqTW-7" value="" style="endArrow=none;dashed=1;html=1;" edge="1" parent="1" target="6HE_HoCdKG0zjBrQhqTW-8">
                    <mxGeometry width="50" height="50" relative="1" as="geometry">
                        <mxPoint x="420" y="410.0000000000001" as="sourcePoint"/>
                        <mxPoint x="420" y="200" as="targetPoint"/>
                    </mxGeometry>
                </mxCell>
                <mxCell id="6HE_HoCdKG0zjBrQhqTW-8" value="" style="rounded=0;whiteSpace=wrap;html=1;fillColor=#1ba1e2;fontColor=#ffffff;strokeColor=#006EAF;" vertex="1" parent="1">
                    <mxGeometry x="400" y="260" width="40" height="80" as="geometry"/>
                </mxCell>
                <mxCell id="6HE_HoCdKG0zjBrQhqTW-9" value="getNotification()" style="text;html=1;strokeColor=none;fillColor=none;align=center;verticalAlign=middle;whiteSpace=wrap;rounded=0;" vertex="1" parent="1">
                    <mxGeometry x="290" y="250" width="60" height="30" as="geometry"/>
                </mxCell>
                <mxCell id="6HE_HoCdKG0zjBrQhqTW-10" value="View notifications" style="text;html=1;strokeColor=none;fillColor=none;align=center;verticalAlign=middle;whiteSpace=wrap;rounded=0;" vertex="1" parent="1">
                    <mxGeometry x="235" y="290" width="170" height="30" as="geometry"/>
                </mxCell>
            </root>
        </mxGraphModel>
    </diagram>
</mxfile>